<svg width="107" height="107" viewBox="0 0 107 107" fill="none" xmlns="http://www.w3.org/2000/svg">
<path d="M53.5013 53.5C65.6976 53.5 75.5846 43.613 75.5846 31.4167C75.5846 19.2204 65.6976 9.33337 53.5013 9.33337C41.305 9.33337 31.418 19.2204 31.418 31.4167C31.418 43.613 41.305 53.5 53.5013 53.5Z" stroke="#3C757D" stroke-width="5" stroke-linecap="round" stroke-linejoin="round"/>
<path d="M15.5625 97.6667C15.5625 80.5742 32.5667 66.75 53.5016 66.75C57.7416 66.75 61.8492 67.3241 65.6917 68.3841" stroke="#3C757D" stroke-width="5" stroke-linecap="round" stroke-linejoin="round"/>
<path d="M97.6654 80C97.6654 83.3125 96.7379 86.4484 95.1038 89.0984C94.1763 90.6884 92.9837 92.1017 91.6146 93.25C88.5229 96.0325 84.4595 97.6667 79.9987 97.6667C73.5504 97.6667 67.9411 94.2217 64.8936 89.0984C63.2595 86.4484 62.332 83.3125 62.332 80C62.332 74.435 64.8937 69.4442 68.957 66.2201C72.0045 63.7909 75.847 62.3334 79.9987 62.3334C89.7595 62.3334 97.6654 70.2392 97.6654 80Z" stroke="#3C757D" stroke-width="5" stroke-miterlimit="10" stroke-linecap="round" stroke-linejoin="round"/>
<path d="M73.1094 80L77.4818 84.3725L86.8894 75.6718" stroke="#3C757D" stroke-width="5" stroke-linecap="round" stroke-linejoin="round"/>
</svg>
