<svg width="18" height="18" viewBox="0 0 18 18" fill="none" xmlns="http://www.w3.org/2000/svg">
<path d="M16.117 11.2073C15.471 11.5055 14.727 11.5068 14.08 11.2108L5.50685 7.2893C4.87347 7.01812 4.46272 6.3955 4.46266 5.70651L4.46263 5.37013C4.46257 4.64856 4.81136 3.97147 5.3989 3.5526L9.38545 0.710496C10.2007 0.129294 11.2949 0.129293 12.1101 0.710495L15.7328 3.29318C16.5487 3.87484 17.0331 4.81502 17.0331 5.81702L17.0332 9.6821C17.0333 10.0381 16.934 10.387 16.7466 10.6896C16.6182 10.897 16.4317 11.0621 16.2103 11.1643L16.117 11.2073ZM11.3241 5.33603H12.1054V4.5557H11.3241V5.33603ZM9.39017 5.33603H10.1715V4.5557H9.39017V5.33603ZM11.3241 7.26996H12.1054V6.48962H11.3241V7.26996ZM9.39017 7.26996H10.1715V6.48962H9.39017V7.26996ZM1.45044 17.4791C0.649386 17.4791 0 16.8298 0 16.0287V11.045C0 10.2439 0.649386 9.59454 1.45044 9.59454C2.2515 9.59454 2.90089 10.2439 2.90089 11.045V16.0287C2.90089 16.8298 2.2515 17.4791 1.45044 17.4791ZM13.266 17.5896C11.9408 18.0265 10.5142 18.0509 9.1748 17.6596L6.54693 16.8918C4.95917 16.4278 3.86785 14.972 3.86785 13.3179V11.5456C3.86785 10.4681 4.74137 9.59454 5.81891 9.59454C6.04934 9.59454 6.27794 9.63536 6.49413 9.7151L12.6817 11.9976C13.039 12.1294 13.2764 12.4699 13.2764 12.8508C13.2764 13.353 12.8692 13.7602 12.367 13.7602H10.7852C10.5141 13.7602 10.245 13.7137 9.98957 13.6227L8.21279 12.9896C8.01812 12.9202 7.80326 13.0157 7.72428 13.2067C7.63806 13.4152 7.74732 13.6529 7.96166 13.7233L9.98024 14.3861C10.2177 14.4641 10.4661 14.5038 10.7161 14.5038H17.1151C17.6038 14.5038 18 14.9 18 15.3887C18 15.7707 17.7549 16.1095 17.3922 16.2291L13.266 17.5896Z" fill="white"/>
</svg>
