<svg width="33" height="32" viewBox="0 0 33 32" fill="none" xmlns="http://www.w3.org/2000/svg">
<path opacity="0.4" d="M27.4609 13.587H23.6076C20.4476 13.587 17.8743 11.0137 17.8743 7.85366V4.00033C17.8743 3.26699 17.2743 2.66699 16.5409 2.66699H10.8876C6.78094 2.66699 3.46094 5.33367 3.46094 10.0937V21.907C3.46094 26.667 6.78094 29.3337 10.8876 29.3337H21.3676C25.4743 29.3337 28.7943 26.667 28.7943 21.907V14.9203C28.7943 14.187 28.1943 13.587 27.4609 13.587Z" fill="#BABABA"/>
<path d="M21.1926 2.94731C20.6459 2.40065 19.6992 2.77396 19.6992 3.53396V8.1873C19.6992 10.134 21.3526 11.7473 23.3659 11.7473C24.6326 11.7606 26.3926 11.7606 27.8992 11.7606C28.6592 11.7606 29.0592 10.8673 28.5259 10.334C26.6059 8.40064 23.1659 4.92065 21.1926 2.94731Z" fill="#BABABA"/>
<path d="M19.807 25.6801C16.6737 25.9067 16.6737 30.4401 19.807 30.6667H27.2204C28.1137 30.6667 28.9937 30.3334 29.647 29.7334C31.847 27.8134 30.6737 23.9734 27.7804 23.6134C26.7404 17.3601 17.7004 19.7334 19.8337 25.6934" fill="#BABABA"/>
</svg>
